ply
format ascii 1.0
comment Created by Blender 2.72 (sub 0) - www.blender.org, source file: ''
comment Nose fixed by replacing 2 quads with 4 tri
element vertex 507
property float x
property float y
property float z
element face 502
property list uchar uint vertex_indices
end_header
1.066808 -0.378677 1.597090
1.035558 -0.456802 1.604902
1.098058 -0.527115 1.526777
1.160558 -0.378677 1.511152
0.098058 -0.527115 1.526777
0.160558 -0.456802 1.604902
0.129308 -0.378677 1.597090
0.035558 -0.378677 1.511152
1.144933 -0.566177 1.417402
1.223058 -0.378677 1.401777
0.051183 -0.566177 1.417402
-0.026942 -0.378677 1.401777
0.949621 -0.589615 1.558027
0.949621 -0.644302 1.456465
0.246496 -0.644302 1.456465
0.246496 -0.589615 1.558027
0.949621 -0.488052 1.620527
0.246496 -0.488052 1.620527
0.871496 -0.456802 1.636152
0.801183 -0.527115 1.581465
0.394933 -0.527115 1.581465
0.324621 -0.456802 1.636152
0.754308 -0.566177 1.487715
0.441808 -0.566177 1.487715
0.738683 -0.378677 1.581465
0.676183 -0.378677 1.495527
0.519933 -0.378677 1.495527
0.457433 -0.378677 1.581465
0.840246 -0.378677 1.636152
0.355871 -0.378677 1.636152
0.871496 -0.292740 1.636152
0.801183 -0.230240 1.581465
0.394933 -0.230240 1.581465
0.324621 -0.292740 1.636152
0.754308 -0.183365 1.487715
0.441808 -0.183365 1.487715
0.949621 -0.167740 1.558027
0.949621 -0.105240 1.456465
0.246496 -0.105240 1.456465
0.246496 -0.167740 1.558027
0.949621 -0.261490 1.620527
0.246496 -0.261490 1.620527
1.035558 -0.292740 1.604902
1.098058 -0.230240 1.526777
0.098058 -0.230240 1.526777
0.160558 -0.292740 1.604902
1.144933 -0.183365 1.417402
0.051183 -0.183365 1.417402
1.043371 -0.284927 1.620527
1.074621 -0.378677 1.612715
0.152746 -0.284927 1.620527
0.121496 -0.378677 1.612715
0.949621 -0.245865 1.643965
0.246496 -0.245865 1.643965
0.863683 -0.284927 1.659590
0.332433 -0.284927 1.659590
0.824621 -0.378677 1.659590
0.371496 -0.378677 1.659590
0.863683 -0.464615 1.659590
0.332433 -0.464615 1.659590
0.949621 -0.503677 1.643965
0.246496 -0.503677 1.643965
1.043371 -0.464615 1.620527
0.152746 -0.464615 1.620527
0.949621 -0.378677 1.667402
0.246496 -0.378677 1.667402
0.777746 -1.589615 1.393965
0.762121 -1.550552 1.472090
0.598058 -1.566177 1.479902
0.598058 -1.605240 1.417402
0.433996 -1.550552 1.472090
0.418371 -1.589615 1.393965
0.926183 -1.566177 1.362715
0.832433 -1.534927 1.472090
0.363683 -1.534927 1.472090
0.269933 -1.566177 1.362715
0.965246 -1.511490 1.370527
0.863683 -1.441177 1.503340
0.332433 -1.441177 1.503340
0.230871 -1.511490 1.370527
0.949621 -1.316177 1.409590
0.848058 -1.323990 1.526777
0.348058 -1.323990 1.526777
0.246496 -1.316177 1.409590
0.910558 -1.058365 1.409590
0.808996 -1.066177 1.550215
0.387121 -1.066177 1.550215
0.285558 -1.058365 1.409590
0.801183 -0.808365 1.401777
1.035558 -0.761490 1.370527
0.996496 -0.667740 1.511152
0.723058 -0.722427 1.651777
0.199621 -0.667740 1.511152
0.160558 -0.761490 1.370527
0.394933 -0.808365 1.401777
0.473058 -0.722427 1.651777
1.230871 -0.659927 1.378340
1.215246 -0.566177 1.464277
-0.019129 -0.566177 1.464277
-0.034754 -0.659927 1.378340
1.426183 -0.472427 1.284590
1.324621 -0.417740 1.440840
-0.128504 -0.417740 1.440840
-0.230067 -0.472427 1.284590
1.457433 -0.191177 1.433027
1.340246 -0.245865 1.495527
-0.144129 -0.245865 1.495527
-0.261317 -0.191177 1.433027
1.308996 -0.136490 1.464277
1.285558 -0.206802 1.565840
-0.089442 -0.206802 1.565840
-0.112879 -0.136490 1.464277
1.090246 -0.019302 1.526777
1.035558 -0.073990 1.636152
0.160558 -0.073990 1.636152
0.105871 -0.019302 1.526777
0.918371 0.136948 1.573652
0.910558 0.019760 1.675215
0.285558 0.019760 1.675215
0.277746 0.136948 1.573652
0.754308 0.097885 1.597090
0.801183 -0.003677 1.690840
0.394933 -0.003677 1.690840
0.441808 0.097885 1.597090
0.660558 -0.128677 1.589277
0.699621 -0.191177 1.683027
0.496496 -0.191177 1.683027
0.535558 -0.128677 1.589277
0.598058 -0.191177 1.581465
0.598058 -0.269302 1.659590
0.762121 -0.206802 1.612715
0.848058 -0.152115 1.597090
0.348058 -0.152115 1.597090
0.433996 -0.206802 1.612715
0.926183 -0.144302 1.581465
0.269933 -0.144302 1.581465
1.027746 -0.183365 1.558027
0.168371 -0.183365 1.558027
1.199621 -0.245865 1.503340
-0.003504 -0.245865 1.503340
1.238683 -0.323990 1.487715
-0.042567 -0.323990 1.487715
1.223058 -0.433365 1.487715
-0.026942 -0.433365 1.487715
1.090246 -0.558365 1.511152
0.105871 -0.558365 1.511152
0.973058 -0.605240 1.542402
0.223058 -0.605240 1.542402
0.801183 -0.527115 1.581465
0.394933 -0.527115 1.581465
0.762121 -0.480240 1.589277
0.598058 -0.573990 1.565840
0.433996 -0.480240 1.589277
0.723058 -0.316177 1.604902
0.473058 -0.316177 1.604902
0.598058 -0.409927 1.604902
0.730871 -0.409927 1.597090
0.465246 -0.409927 1.597090
0.660558 -1.503677 1.534590
0.598058 -1.511490 1.526777
0.535558 -1.503677 1.534590
0.715246 -1.456802 1.550215
0.480871 -1.456802 1.550215
0.707433 -1.339615 1.573652
0.488683 -1.339615 1.573652
0.676183 -1.066177 1.589277
0.715246 -1.308365 1.573652
0.480871 -1.308365 1.573652
0.519933 -1.066177 1.589277
0.683996 -0.909927 1.581465
0.598058 -0.948990 1.581465
0.598058 -1.066177 1.589277
0.512121 -0.909927 1.581465
0.598058 -1.300552 1.573652
0.598058 -1.386490 1.573652
0.723058 -0.847427 1.589277
0.730871 -0.847427 1.636152
0.691808 -0.894302 1.620527
0.504308 -0.894302 1.620527
0.465246 -0.847427 1.636152
0.473058 -0.847427 1.589277
0.699621 -0.769302 1.581465
0.707433 -0.753677 1.620527
0.488683 -0.753677 1.620527
0.496496 -0.769302 1.581465
0.598058 -0.761490 1.581465
0.637121 -0.745865 1.620527
0.558996 -0.745865 1.620527
0.598058 -0.816177 1.589277
0.598058 -0.808365 1.636152
0.598058 -0.941177 1.620527
0.676183 -0.870865 1.643965
0.598058 -0.909927 1.643965
0.519933 -0.870865 1.643965
0.598058 -0.823990 1.667402
0.644933 -0.769302 1.651777
0.551183 -0.769302 1.651777
0.691808 -0.777115 1.651777
0.504308 -0.777115 1.651777
0.707433 -0.847427 1.667402
0.488683 -0.847427 1.667402
0.762121 -0.863052 1.550215
0.433996 -0.863052 1.550215
0.777746 -0.933365 1.550215
0.418371 -0.933365 1.550215
0.855871 -0.933365 1.393965
0.340246 -0.933365 1.393965
0.832433 -0.870865 1.393965
0.363683 -0.870865 1.393965
0.598058 -1.394302 1.558027
0.691808 -1.363052 1.565840
0.504308 -1.363052 1.565840
0.691808 -1.441177 1.550215
0.504308 -1.441177 1.550215
0.644933 -1.488052 1.526777
0.551183 -1.488052 1.526777
0.598058 -1.495865 1.526777
0.644933 -1.472427 1.472090
0.598058 -1.480240 1.472090
0.551183 -1.472427 1.472090
0.691808 -1.433365 1.479902
0.504308 -1.433365 1.479902
0.691808 -1.370865 1.503340
0.504308 -1.370865 1.503340
0.598058 -1.402115 1.495527
0.785558 -0.464615 1.612715
0.769933 -0.402115 1.620527
0.410558 -0.464615 1.612715
0.426183 -0.402115 1.620527
0.777746 -0.323990 1.620527
0.418371 -0.323990 1.620527
0.808996 -0.245865 1.620527
0.387121 -0.245865 1.620527
0.824621 -0.511490 1.620527
0.371496 -0.511490 1.620527
0.973058 -0.558365 1.581465
0.223058 -0.558365 1.581465
1.074621 -0.519302 1.558027
0.121496 -0.519302 1.558027
1.176183 -0.425552 1.518965
0.019933 -0.425552 1.518965
1.183996 -0.331802 1.526777
0.012121 -0.331802 1.526777
1.160558 -0.269302 1.534590
0.035558 -0.269302 1.534590
1.019933 -0.222427 1.612715
0.176183 -0.222427 1.612715
0.933996 -0.191177 1.597090
0.262121 -0.191177 1.597090
0.871496 -0.198990 1.612715
0.324621 -0.198990 1.612715
0.832433 -0.261490 1.597090
0.879308 -0.222427 1.604902
0.363683 -0.261490 1.597090
0.316808 -0.222427 1.604902
0.933996 -0.214615 1.589277
0.262121 -0.214615 1.589277
1.012121 -0.230240 1.589277
0.183996 -0.230240 1.589277
1.129308 -0.284927 1.518965
0.066808 -0.284927 1.518965
1.152746 -0.339615 1.511152
0.043371 -0.339615 1.511152
1.144933 -0.409927 1.511152
0.051183 -0.409927 1.511152
1.058996 -0.503677 1.542402
0.137121 -0.503677 1.542402
0.973058 -0.534927 1.565840
0.223058 -0.534927 1.565840
0.840246 -0.495865 1.597090
0.355871 -0.495865 1.597090
0.801183 -0.448990 1.589277
0.394933 -0.448990 1.589277
0.793371 -0.323990 1.597090
0.402746 -0.323990 1.597090
0.793371 -0.394302 1.589277
0.402746 -0.394302 1.589277
0.707433 -0.159927 1.448652
0.598058 -0.214615 1.440840
0.488683 -0.159927 1.448652
0.793371 0.043198 1.456465
0.402746 0.043198 1.456465
0.933996 0.066635 1.433027
0.262121 0.066635 1.433027
1.082433 -0.066177 1.393965
0.113683 -0.066177 1.393965
1.277746 -0.167740 1.331465
-0.081629 -0.167740 1.331465
1.394933 -0.214615 1.300215
-0.198817 -0.214615 1.300215
1.371496 -0.456802 1.214277
-0.175379 -0.456802 1.214277
1.199621 -0.620865 1.253340
-0.003504 -0.620865 1.253340
1.035558 -0.714615 1.308027
0.160558 -0.714615 1.308027
0.598058 -1.191177 1.159590
0.598058 -1.105240 1.120527
0.777746 -1.034927 1.097090
0.723058 -1.159927 1.198652
0.418371 -1.034927 1.097090
0.473058 -1.159927 1.198652
0.598058 -1.425552 1.183027
0.738683 -1.378677 1.206465
0.457433 -1.378677 1.206465
0.598058 -1.597427 1.300215
0.762121 -1.566177 1.276777
0.433996 -1.566177 1.276777
0.926183 -1.534927 1.237715
0.269933 -1.534927 1.237715
0.887121 -1.331802 1.222090
0.308996 -1.331802 1.222090
0.848058 -1.120865 1.229902
0.348058 -1.120865 1.229902
0.832433 -0.972427 1.245527
0.363683 -0.972427 1.245527
0.816808 -0.902115 1.268965
0.808996 -0.847427 1.308027
0.387121 -0.847427 1.308027
0.379308 -0.902115 1.268965
0.801183 -0.792740 1.339277
0.394933 -0.792740 1.339277
0.598058 -0.550552 0.011152
0.933996 -0.566177 0.175215
0.941808 -0.769302 0.300215
0.598058 -0.816177 0.167402
0.254308 -0.769302 0.300215
0.262121 -0.566177 0.175215
0.894933 -0.933365 0.573652
0.598058 -1.003677 0.487715
0.301183 -0.933365 0.573652
0.808996 -1.011490 1.003340
0.598058 -1.081802 1.026777
0.387121 -1.011490 1.003340
1.332433 -0.667740 0.909590
1.449621 -0.386490 0.893965
-0.136317 -0.667740 0.909590
-0.253504 -0.386490 0.893965
0.598058 -0.058365 -0.012285
1.058996 -0.183365 0.136152
0.137121 -0.183365 0.136152
0.598058 0.277573 1.128340
1.051183 0.230698 1.073652
1.051183 0.308823 0.768965
0.598058 0.363510 0.761152
0.144933 0.308823 0.768965
0.144933 0.230698 1.073652
1.051183 0.246323 0.456465
0.598058 0.277573 0.292402
0.144933 0.246323 0.456465
1.324621 -0.214615 1.175215
1.230871 -0.167740 1.120527
-0.128504 -0.214615 1.175215
-0.034754 -0.167740 1.120527
1.394933 -0.058365 0.964277
1.238683 0.082260 0.893965
-0.198817 -0.058365 0.964277
-0.042567 0.082260 0.893965
1.394933 -0.003677 0.722090
1.238683 0.129135 0.643965
-0.198817 -0.003677 0.722090
-0.042567 0.129135 0.643965
1.394933 -0.081802 0.479902
1.238683 0.058823 0.393965
-0.198817 -0.081802 0.479902
-0.042567 0.058823 0.393965
1.371496 -0.355240 0.401777
1.215246 -0.292740 0.253340
-0.019129 -0.292740 0.253340
-0.175379 -0.355240 0.401777
1.058996 -0.097427 1.268965
0.137121 -0.097427 1.268965
0.598058 -0.050552 1.409590
1.457433 -0.300552 0.792402
-0.261317 -0.300552 0.792402
1.418371 -0.292740 0.636152
-0.222254 -0.292740 0.636152
1.027746 -0.816177 0.628340
1.004308 -0.792740 0.987715
0.168371 -0.816177 0.628340
0.191808 -0.792740 0.987715
1.191808 -0.745865 0.675215
0.004308 -0.745865 0.675215
1.238683 -0.628677 0.409590
1.082433 -0.597427 0.292402
0.113683 -0.597427 0.292402
-0.042567 -0.628677 0.409590
1.621496 -0.144302 0.526777
1.488683 -0.214615 0.604902
1.519933 -0.261490 0.620527
1.613683 -0.206802 0.550215
-0.323817 -0.261490 0.620527
-0.292567 -0.214615 0.604902
-0.425379 -0.144302 0.526777
-0.417567 -0.206802 0.550215
1.785558 -0.183365 0.448652
1.832433 -0.113052 0.417402
-0.589442 -0.183365 0.448652
-0.636317 -0.113052 0.417402
1.863683 -0.331802 0.433027
1.949621 -0.300552 0.417402
-0.667567 -0.331802 0.433027
-0.753504 -0.300552 0.417402
1.808996 -0.542740 0.433027
1.879308 -0.566177 0.409590
-0.612879 -0.542740 0.433027
-0.683192 -0.566177 0.409590
1.629308 -0.659927 0.534590
1.637121 -0.722427 0.511152
-0.433192 -0.659927 0.534590
-0.441004 -0.722427 0.511152
1.426183 -0.691177 0.706465
1.371496 -0.761490 0.714277
-0.230067 -0.691177 0.706465
-0.175379 -0.761490 0.714277
1.637121 -0.620865 0.472090
1.480871 -0.644302 0.628340
-0.284754 -0.644302 0.628340
-0.441004 -0.620865 0.472090
1.785558 -0.527115 0.393965
-0.589442 -0.527115 0.393965
1.832433 -0.370865 0.393965
-0.636317 -0.370865 0.393965
1.769933 -0.261490 0.401777
-0.573817 -0.261490 0.401777
1.621496 -0.277115 0.479902
-0.425379 -0.277115 0.479902
1.543371 -0.316177 0.550215
-0.347254 -0.316177 0.550215
1.316808 -0.644302 0.667402
1.324621 -0.620865 0.768965
-0.120692 -0.644302 0.667402
-0.128504 -0.620865 0.768965
1.441808 -0.331802 0.628340
-0.245692 -0.331802 0.628340
1.410558 -0.636490 0.565840
-0.214442 -0.636490 0.565840
1.441808 -0.605240 0.565840
1.316808 -0.581802 0.651777
-0.120692 -0.581802 0.651777
-0.245692 -0.605240 0.565840
1.355871 -0.527115 0.565840
1.418371 -0.534927 0.565840
-0.159754 -0.527115 0.565840
-0.222254 -0.534927 0.565840
1.433996 -0.448990 0.565840
1.394933 -0.417740 0.628340
-0.198817 -0.417740 0.628340
-0.237879 -0.448990 0.565840
1.488683 -0.378677 0.573652
-0.292567 -0.378677 0.573652
1.488683 -0.386490 0.518965
1.551183 -0.331802 0.495527
-0.292567 -0.386490 0.518965
-0.355067 -0.331802 0.495527
1.441808 -0.448990 0.518965
-0.245692 -0.448990 0.518965
1.363683 -0.527115 0.518965
-0.167567 -0.527115 0.518965
1.426183 -0.542740 0.518965
-0.230067 -0.542740 0.518965
1.449621 -0.605240 0.518965
-0.253504 -0.605240 0.518965
1.410558 -0.636490 0.518965
-0.214442 -0.636490 0.518965
1.480871 -0.636490 0.573652
-0.284754 -0.636490 0.573652
1.637121 -0.292740 0.425215
-0.441004 -0.292740 0.425215
1.785558 -0.277115 0.354902
-0.589442 -0.277115 0.354902
1.855871 -0.378677 0.347090
-0.659754 -0.378677 0.347090
1.808996 -0.534927 0.354902
-0.612879 -0.534927 0.354902
1.644933 -0.620865 0.417402
-0.448817 -0.620865 0.417402
1.535558 -0.558365 0.503340
1.488683 -0.511490 0.511152
-0.339442 -0.558365 0.503340
-0.292567 -0.511490 0.511152
1.598058 -0.495865 0.472090
1.558996 -0.448990 0.487715
-0.401942 -0.495865 0.472090
-0.362879 -0.448990 0.487715
1.652746 -0.433365 0.456465
1.613683 -0.386490 0.464277
-0.456629 -0.433365 0.456465
-0.417567 -0.386490 0.464277
1.707433 -0.409927 0.448652
1.683996 -0.347427 0.448652
-0.511317 -0.409927 0.448652
-0.487879 -0.347427 0.448652
1.387121 -0.745865 0.511152
1.637121 -0.706802 0.347090
-0.191004 -0.745865 0.511152
-0.441004 -0.706802 0.347090
1.910558 -0.566177 0.308027
-0.714442 -0.566177 0.308027
1.965246 -0.323990 0.339277
-0.769129 -0.323990 0.339277
1.848058 -0.152115 0.292402
-0.651942 -0.152115 0.292402
1.621496 -0.183365 0.354902
-0.425379 -0.183365 0.354902
1.457433 -0.238052 0.456465
-0.261317 -0.238052 0.456465
4 0 1 2 3
4 4 5 6 7
4 3 2 8 9
4 10 4 7 11
4 2 12 13 8
4 14 15 4 10
4 1 16 12 2
4 15 17 5 4
4 16 18 19 12
4 20 21 17 15
4 12 19 22 13
4 23 20 15 14
4 19 24 25 22
4 26 27 20 23
4 18 28 24 19
4 27 29 21 20
4 28 30 31 24
4 32 33 29 27
4 24 31 34 25
4 35 32 27 26
4 31 36 37 34
4 38 39 32 35
4 30 40 36 31
4 39 41 33 32
4 40 42 43 36
4 44 45 41 39
4 36 43 46 37
4 47 44 39 38
4 43 3 9 46
4 11 7 44 47
4 42 0 3 43
4 7 6 45 44
4 0 42 48 49
4 50 45 6 51
4 42 40 52 48
4 53 41 45 50
4 40 30 54 52
4 55 33 41 53
4 30 28 56 54
4 57 29 33 55
4 28 18 58 56
4 59 21 29 57
4 18 16 60 58
4 61 17 21 59
4 16 1 62 60
4 63 5 17 61
4 1 0 49 62
4 51 6 5 63
3 64 62 49
3 51 63 65
3 60 62 64
3 65 63 61
3 64 58 60
3 61 59 65
3 64 56 58
3 59 57 65
3 64 54 56
3 57 55 65
3 64 52 54
3 55 53 65
3 64 48 52
3 53 50 65
3 64 49 48
3 50 51 65
4 66 67 68 69
4 68 70 71 69
4 72 73 67 66
4 70 74 75 71
4 76 77 73 72
4 74 78 79 75
4 80 81 77 76
4 78 82 83 79
4 84 85 81 80
4 82 86 87 83
4 88 89 90 91
4 92 93 94 95
4 89 96 97 90
4 98 99 93 92
4 96 100 101 97
4 102 103 99 98
4 100 104 105 101
4 106 107 103 102
4 104 108 109 105
4 110 111 107 106
4 108 112 113 109
4 114 115 111 110
4 112 116 117 113
4 118 119 115 114
4 116 120 121 117
4 122 123 119 118
4 120 124 125 121
4 126 127 123 122
4 124 128 129 125
4 129 128 127 126
4 130 131 121 125
4 122 132 133 126
4 131 134 117 121
4 118 135 132 122
4 136 113 117 134
4 118 114 137 135
4 138 109 113 136
4 114 110 139 137
4 140 105 109 138
4 110 106 141 139
4 142 101 105 140
4 106 102 143 141
4 144 97 101 142
4 102 98 145 143
4 146 90 97 144
4 98 92 147 145
4 148 91 90 146
4 92 95 149 147
4 148 150 151 91
4 151 152 149 95
4 130 125 129 153
4 129 126 133 154
4 153 129 155 156
4 155 129 154 157
4 151 150 156 155
4 157 152 151 155
4 158 159 68 67
4 68 159 160 70
4 161 158 67 73
4 70 160 162 74
4 163 161 73 77
4 74 162 164 78
4 85 165 166 81
4 167 168 86 82
4 163 77 81 166
4 82 78 164 167
4 169 170 171 165
4 171 170 172 168
4 166 165 171 173
4 171 168 167 173
4 174 163 166 173
4 167 164 174 173
4 175 176 177 169
4 178 179 180 172
4 181 182 176 175
4 179 183 184 180
4 185 186 182 181
4 183 187 185 184
3 188 189 186
3 187 189 188
4 170 169 177 190
4 178 172 170 190
4 190 177 191 192
4 193 178 190 192
4 189 194 195 186
4 196 194 189 187
4 186 195 197 182
4 198 196 187 183
4 182 197 199 176
4 200 198 183 179
4 176 199 191 177
4 193 200 179 178
4 194 199 197 195
4 198 200 194 196
4 194 192 191 199
4 193 192 194 200
4 185 181 91 151
4 95 184 185 151
4 181 175 201 91
4 202 180 184 95
4 175 169 203 201
4 204 172 180 202
4 169 165 85 203
4 86 168 172 204
4 84 205 203 85
4 204 206 87 86
4 205 207 201 203
4 202 208 206 204
4 88 91 201 207
4 202 95 94 208
4 163 174 209 210
4 209 174 164 211
4 161 163 210 212
4 211 164 162 213
4 158 161 212 214
4 213 162 160 215
4 159 158 214 216
4 215 160 159 216
4 216 214 217 218
4 219 215 216 218
4 214 212 220 217
4 221 213 215 219
4 212 210 222 220
4 223 211 213 221
4 210 209 224 222
4 224 209 211 223
4 224 218 217 222
4 219 218 224 223
3 222 217 220
3 221 219 223
4 156 150 225 226
4 227 152 157 228
4 153 156 226 229
4 228 157 154 230
4 130 153 229 231
4 230 154 133 232
4 150 148 233 225
4 234 149 152 227
4 148 146 235 233
4 236 147 149 234
4 146 144 237 235
4 238 145 147 236
4 144 142 239 237
4 240 143 145 238
4 142 140 241 239
4 242 141 143 240
4 140 138 243 241
4 244 139 141 242
4 138 136 245 243
4 246 137 139 244
4 136 134 247 245
4 248 135 137 246
4 134 131 249 247
4 250 132 135 248
4 131 130 231 249
4 232 133 132 250
4 249 231 251 252
4 253 232 250 254
4 247 249 252 255
4 254 250 248 256
4 245 247 255 257
4 256 248 246 258
4 243 245 257 259
4 258 246 244 260
4 241 243 259 261
4 260 244 242 262
4 239 241 261 263
4 262 242 240 264
4 237 239 263 265
4 264 240 238 266
4 235 237 265 267
4 266 238 236 268
4 233 235 267 269
4 268 236 234 270
4 225 233 269 271
4 270 234 227 272
4 231 229 273 251
4 274 230 232 253
4 229 226 275 273
4 276 228 230 274
4 226 225 271 275
4 272 227 228 276
4 128 124 277 278
4 279 127 128 278
4 124 120 280 277
4 281 123 127 279
4 120 116 282 280
4 283 119 123 281
4 116 112 284 282
4 285 115 119 283
4 112 108 286 284
4 287 111 115 285
4 108 104 288 286
4 289 107 111 287
4 104 100 290 288
4 291 103 107 289
4 100 96 292 290
4 293 99 103 291
4 96 89 294 292
4 295 93 99 293
4 296 297 298 299
4 300 297 296 301
4 302 296 299 303
4 301 296 302 304
4 305 302 303 306
4 304 302 305 307
4 66 69 305 306
4 305 69 71 307
4 72 66 306 308
4 307 71 75 309
4 76 72 308 310
4 309 75 79 311
4 80 76 310 312
4 311 79 83 313
4 310 303 299 312
4 301 304 311 313
4 310 308 306 303
4 307 309 311 304
4 314 312 299 298
4 301 313 315 300
4 84 80 312 314
4 313 83 87 315
4 205 316 317 207
4 318 319 206 208
4 84 314 316 205
4 319 315 87 206
4 88 207 317 320
4 318 208 94 321
4 88 320 294 89
4 295 321 94 93
4 322 323 324 325
4 326 327 322 325
4 325 324 328 329
4 330 326 325 329
4 329 328 331 332
4 333 330 329 332
4 332 331 298 297
4 300 333 332 297
4 314 298 331 316
4 333 300 315 319
4 290 292 334 335
4 336 293 291 337
4 338 339 323 322
4 327 340 338 322
4 341 342 343 344
4 345 346 341 344
4 344 343 347 348
4 349 345 344 348
4 348 347 339 338
4 340 349 348 338
4 286 288 350 351
4 352 289 287 353
4 351 350 354 355
4 356 352 353 357
4 355 354 358 359
4 360 356 357 361
4 359 358 362 363
4 364 360 361 365
4 366 367 363 362
4 365 368 369 364
4 339 347 363 367
4 365 349 340 368
4 347 343 359 363
4 361 345 349 365
4 343 342 355 359
4 357 346 345 361
4 342 370 351 355
4 353 371 346 357
4 284 286 351 370
4 353 287 285 371
4 372 370 342 341
4 346 371 372 341
4 277 280 282 284
4 283 281 279 285
4 277 284 370 372
4 371 285 279 372
3 278 277 372
3 372 279 278
4 288 290 335 350
4 337 291 289 352
4 335 373 354 350
4 356 374 337 352
4 373 375 358 354
4 360 376 374 356
4 366 362 358 375
4 360 364 369 376
4 331 328 377 378
4 379 330 333 380
4 334 378 377 381
4 379 380 336 382
4 292 294 378 334
4 380 295 293 336
4 294 317 316 378
4 319 318 295 380
3 316 331 378
3 380 333 319
3 294 320 317
3 318 321 295
4 366 383 384 367
4 385 386 369 368
4 339 367 384 323
4 385 368 340 327
4 381 377 384 383
4 385 379 382 386
4 328 324 384 377
4 385 326 330 379
3 323 384 324
3 326 385 327
4 387 388 389 390
4 391 392 393 394
4 387 390 395 396
4 397 394 393 398
4 396 395 399 400
4 401 397 398 402
4 400 399 403 404
4 405 401 402 406
4 404 403 407 408
4 409 405 406 410
4 408 407 411 412
4 413 409 410 414
4 407 415 416 411
4 417 418 409 413
4 403 419 415 407
4 418 420 405 409
4 399 421 419 403
4 420 422 401 405
4 395 423 421 399
4 422 424 397 401
4 390 425 423 395
4 424 426 394 397
4 390 389 427 425
4 428 391 394 426
4 334 381 429 430
4 431 382 336 432
4 381 412 411 429
4 413 414 382 431
4 335 334 430 373
4 432 336 337 374
4 375 433 389 388
4 391 434 376 392
4 411 416 435 429
4 436 417 413 431
4 437 438 429 435
4 431 439 440 436
4 441 438 437 442
4 440 439 443 444
4 445 446 438 441
4 439 447 448 443
4 433 446 445 449
4 448 447 434 450
4 389 433 449 427
4 450 434 391 428
4 373 446 433 375
4 434 447 374 376
4 373 430 438 446
4 439 432 374 447
3 430 429 438
3 439 431 432
4 427 449 451 452
4 453 450 428 454
4 449 445 455 451
4 456 448 450 453
4 445 441 457 455
4 458 443 448 456
4 441 442 459 457
4 460 444 443 458
4 442 437 461 459
4 462 440 444 460
4 437 435 463 461
4 464 436 440 462
4 435 416 465 463
4 466 417 436 464
4 425 427 452 467
4 454 428 426 468
4 423 425 467 469
4 468 426 424 470
4 421 423 469 471
4 470 424 422 472
4 419 421 471 473
4 472 422 420 474
4 415 419 473 475
4 474 420 418 476
4 416 415 475 465
4 476 418 417 466
4 459 461 477 478
4 479 462 460 480
4 478 477 481 482
4 483 479 480 484
4 482 481 485 486
4 487 483 484 488
4 486 485 489 490
4 491 487 488 492
4 467 452 486 490
4 488 454 468 492
4 451 482 486 452
4 488 484 453 454
4 451 455 478 482
4 480 456 453 484
4 459 478 455 457
4 456 480 460 458
4 463 465 477 461
4 479 466 464 462
4 475 481 477 465
4 479 483 476 466
4 473 485 481 475
4 483 487 474 476
4 471 489 485 473
4 487 491 472 474
4 469 490 489 471
4 491 492 470 472
3 467 490 469
3 470 492 468
4 408 412 493 494
4 495 414 410 496
4 404 408 494 497
4 496 410 406 498
4 400 404 497 499
4 498 406 402 500
4 396 400 499 501
4 500 402 398 502
4 387 396 501 503
4 502 398 393 504
4 388 387 503 505
4 504 393 392 506
4 503 494 493 505
4 495 496 504 506
4 503 501 497 494
4 498 502 504 496
3 501 499 497
3 498 500 502
4 366 375 388 505
4 392 376 369 506
4 366 505 493 383
4 495 506 369 386
4 381 383 493 412
4 495 386 382 414
3 185 188 186
3 185 187 188
