ply
format ascii 1.0
comment made by anonymous
comment this file is a cube
element vertex 20
property float32 x
property float32 y
property float32 z
element face 12
property list uint8 int32 vertex_index
end_header
0 0 0
1 0 0
2 0 0
3 0 0
0 1 0
1 1 0
2 1 0
3 1 0
0 0 1
1 0 1
2 0 1
3 0 1
0 1 1
1 1 1
2 1 1
3 1 1
1 0 2
2 0 2
1 1 2
2 1 2
4 0 4 5 1
4 1 5 6 2
4 2 6 7 3
4 8 9 13 12
4 10 11 15 14
4 16 17 19 18
10 1 2 3 11 10 17 16 9 8 0
10 5 4 12 13 18 19 14 15 7 6
4 0 8 12 4
4 9 16 18 13
4 3 7 15 11
4 10 14 19 17
